<?xml version="1.0" encoding="UTF-8"?>
<svg width="56px" height="56px" viewBox="0 0 56 56" version="1.1" xmlns="http://www.w3.org/2000/svg" xmlns:xlink="http://www.w3.org/1999/xlink">
    <!-- Generator: Sketch 52.6 (67491) - http://www.bohemiancoding.com/sketch -->
    <title>nv-freeparking</title>
    <desc>Created with Sketch.</desc>
    <g id="IndoorGo" stroke="none" stroke-width="1" fill="none" fill-rule="evenodd">
        <g id="map_share_location" transform="translate(-36.000000, -685.000000)">
            <g id="Repeat-Group" transform="translate(14.000000, 570.000000)">
                <g id="表单/选择/联系人+-有摘要信息-" transform="translate(0.000000, 99.000000)">
                    <g id="nv-freeparking" transform="translate(22.000000, 16.000000)">
                        <g id="Free-parking">
                            <path d="M31.6944473,14.0137789 L23.7011983,14.0137789 C23.3392813,14.0062524 23.0015883,14.1950273 22.8184222,14.5072623 C22.635256,14.8194974 22.635256,15.2063727 22.8184222,15.5186077 C23.0015883,15.8308428 23.3392813,16.0196176 23.7011983,16.0120911 L31.6944473,16.0120911 C32.2462659,16.0120911 32.6936033,15.5647537 32.6936033,15.012935 C32.6936033,14.4611163 32.2462659,14.0137789 31.6944473,14.0137789 Z" id="Path" stroke="#4A4A4A" fill="#377DFF"></path>
                            <polygon id="Path" stroke="#4A4A4A" fill="#377DFF" points="40.3846211 40.9881857 40.3846211 11.0135021 38.3863089 11.0135021 38.3863089 11.0165266 17.0093367 11.0165266 17.0093367 11.0135021 15.0110245 11.0135021 15.0110245 40.9881857 12.0137722 40.9881857 12.0137722 42.9864979 20.0070211 42.9864979 20.0070211 40.9881857 17.0097688 40.9881857 17.0097688 13.0148388 38.3867409 13.0148388 38.3867409 40.9881857 35.3886245 40.9881857 35.3886245 42.9864979 43.3818734 42.9864979 43.3818734 40.9881857"></polygon>
                            <polygon id="Path" fill="#377DFF" points="23.4808439 20.4040574 25.4791561 20.4040574 25.4791561 33.5959426 23.4808439 33.5959426"></polygon>
                            <path d="M27.7272034,22.4036658 C28.9687656,22.4036658 29.9752506,23.4101509 29.9752506,24.6517131 C29.9752506,25.8932753 28.9687656,26.8997603 27.7272034,26.8997603 C26.4856412,26.8997603 25.4791561,25.8932753 25.4791561,24.6517131 C25.4808222,23.4108416 26.4863319,22.4053319 27.7272034,22.4036658 Z M27.7272034,20.4053536 C25.3819409,20.4053536 23.4808439,22.3064506 23.4808439,24.6517131 C23.4808439,26.9969755 25.3819409,28.8980726 27.7272034,28.8980726 C30.0724658,28.8980726 31.9735629,26.9969755 31.9735629,24.6517131 C31.9735629,22.3068827 30.0724658,20.4053536 27.7272034,20.4053536 Z" id="Shape" fill="#377DFF" fill-rule="nonzero"></path>
                            <rect id="bg" stroke="#377DFF" x="0.5" y="0.5" width="55" height="55" rx="27.5"></rect>
                        </g>
                    </g>
                </g>
            </g>
        </g>
    </g>
</svg>